<?xml version="1.0" encoding="iso-8859-1"?>
<!-- Generator: Adobe Illustrator 19.0.0, SVG Export Plug-In . SVG Version: 6.00 Build 0)  -->
<svg version="1.1" id="Capa_1" xmlns="http://www.w3.org/2000/svg" xmlns:xlink="http://www.w3.org/1999/xlink" x="0px" y="0px"
	 viewBox="0 0 460.8 460.8" style="enable-background:new 0 0 460.8 460.8;" xml:space="preserve">
<g>
	<g>
		<path d="M449.198,201.95c-1.485-9.308-10.235-15.649-19.543-14.164c-9.308,1.485-15.649,10.235-14.164,19.543
			c0.016,0.102,0.033,0.203,0.051,0.304c17.38,102.311-51.47,199.339-153.781,216.719c-102.311,17.38-199.339-51.47-216.719-153.781
			S96.512,71.232,198.823,53.852c62.919-10.688,126.962,11.29,170.059,58.361l-75.605,25.19
			c-8.954,2.979-13.799,12.652-10.82,21.606c2.979,8.954,12.652,13.799,21.606,10.82l102.4-34.133
			c6.984-2.326,11.69-8.869,11.674-16.23v-102.4C418.137,7.641,410.496,0,401.07,0s-17.067,7.641-17.067,17.067v62.344
			c-88.196-84.929-228.541-82.28-313.47,5.916s-82.28,228.541,5.916,313.47c41.354,39.822,96.543,62.049,153.954,62.003
			c122.475-0.141,221.726-99.392,221.867-221.867C452.269,226.542,451.241,214.172,449.198,201.95z"/>
	</g>
</g>
<g>
	<g>
		<path d="M331.027,231.32c-1.654-3.318-4.343-6.008-7.662-7.662l-136.533-68.267c-8.432-4.213-18.682-0.794-22.896,7.638
			c-1.185,2.371-1.801,4.986-1.8,7.637V307.2c-0.004,9.426,7.633,17.07,17.059,17.075c2.651,0.001,5.266-0.615,7.637-1.8
			l136.533-68.267C331.801,250.004,335.232,239.756,331.027,231.32z M196.27,279.586v-81.306l81.306,40.653L196.27,279.586z"/>
	</g>
</g>
<g>
</g>
<g>
</g>
<g>
</g>
<g>
</g>
<g>
</g>
<g>
</g>
<g>
</g>
<g>
</g>
<g>
</g>
<g>
</g>
<g>
</g>
<g>
</g>
<g>
</g>
<g>
</g>
<g>
</g>
</svg>
