<?xml version="1.0" encoding="iso-8859-1"?>
<!-- Generator: Adobe Illustrator 19.0.0, SVG Export Plug-In . SVG Version: 6.00 Build 0)  -->
<svg version="1.1" id="Capa_1" xmlns="http://www.w3.org/2000/svg" xmlns:xlink="http://www.w3.org/1999/xlink" x="0px" y="0px"
	 viewBox="0 0 477.867 477.867" style="enable-background:new 0 0 477.867 477.867;" xml:space="preserve">
<g>
	<g>
		<path d="M375.467,0H102.4C74.123,0,51.2,22.923,51.2,51.2v409.6c0,9.426,7.641,17.067,17.067,17.067s17.067-7.641,17.067-17.067
			V256h290.133c28.277,0,51.2-22.923,51.2-51.2V51.2C426.667,22.923,403.744,0,375.467,0z M392.533,204.8
			c0,9.426-7.641,17.067-17.067,17.067H85.333V51.2c0-9.426,7.641-17.067,17.067-17.067h273.067c9.426,0,17.067,7.641,17.067,17.067
			V204.8z"/>
	</g>
</g>
<g>
</g>
<g>
</g>
<g>
</g>
<g>
</g>
<g>
</g>
<g>
</g>
<g>
</g>
<g>
</g>
<g>
</g>
<g>
</g>
<g>
</g>
<g>
</g>
<g>
</g>
<g>
</g>
<g>
</g>
</svg>
