<?xml version="1.0" encoding="iso-8859-1"?>
<!-- Generator: Adobe Illustrator 19.0.0, SVG Export Plug-In . SVG Version: 6.00 Build 0)  -->
<svg version="1.1" id="Capa_1" xmlns="http://www.w3.org/2000/svg" xmlns:xlink="http://www.w3.org/1999/xlink" x="0px" y="0px"
	 viewBox="0 0 477.827 477.827" style="enable-background:new 0 0 477.827 477.827;" xml:space="preserve">
<g>
	<g>
		<path d="M441.537,228.898c1.489-7.981,2.243-16.082,2.253-24.201c-0.091-75.405-61.292-136.46-136.698-136.369
			c-57.402,0.069-108.63,36.034-128.194,89.999c-35.029-13.944-74.73,3.148-88.675,38.177c-1.207,3.032-2.195,6.146-2.956,9.319
			C31.336,214.19-7.225,266.313,1.14,322.244c7.502,50.163,50.596,87.275,101.316,87.254h273.067
			c56.554-0.053,102.357-45.943,102.303-102.497C477.798,276.899,464.526,248.333,441.537,228.898z M432.243,344.842
			c-12.617,19.015-33.9,30.468-56.72,30.522H102.457c-37.703,0-68.267-30.564-68.267-68.267s30.564-68.267,68.267-68.267
			c9.426,0,17.067-7.641,17.067-17.067c0.031-18.851,15.338-34.108,34.189-34.077c8.915,0.015,17.471,3.517,23.837,9.757
			c6.721,6.608,17.527,6.516,24.135-0.205c2.473-2.515,4.105-5.734,4.673-9.215c9.083-55.772,61.659-93.621,117.431-84.537
			c55.772,9.083,93.621,61.659,84.537,117.431c-0.577,3.546-1.341,7.058-2.288,10.524c-1.959,7.128,0.893,14.706,7.066,18.773
			C444.52,271.06,453.089,313.426,432.243,344.842z"/>
	</g>
</g>
<g>
</g>
<g>
</g>
<g>
</g>
<g>
</g>
<g>
</g>
<g>
</g>
<g>
</g>
<g>
</g>
<g>
</g>
<g>
</g>
<g>
</g>
<g>
</g>
<g>
</g>
<g>
</g>
<g>
</g>
</svg>
