<?xml version="1.0" encoding="iso-8859-1"?>
<!-- Generator: Adobe Illustrator 19.0.0, SVG Export Plug-In . SVG Version: 6.00 Build 0)  -->
<svg version="1.1" id="Capa_1" xmlns="http://www.w3.org/2000/svg" xmlns:xlink="http://www.w3.org/1999/xlink" x="0px" y="0px"
	 viewBox="0 0 477.867 477.867" style="enable-background:new 0 0 477.867 477.867;" xml:space="preserve">
<g>
	<g>
		<path d="M153.6,204.8c-28.277,0-51.2,22.923-51.2,51.2c0,28.277,22.923,51.2,51.2,51.2s51.2-22.923,51.2-51.2
			C204.8,227.723,181.877,204.8,153.6,204.8z M153.6,273.067c-9.426,0-17.067-7.641-17.067-17.067
			c0-9.426,7.641-17.067,17.067-17.067s17.067,7.641,17.067,17.067C170.667,265.426,163.026,273.067,153.6,273.067z"/>
	</g>
</g>
<g>
	<g>
		<path d="M426.667,0H51.2C22.923,0,0,22.923,0,51.2v375.467c0,28.277,22.923,51.2,51.2,51.2h375.467
			c28.277,0,51.2-22.923,51.2-51.2V51.2C477.867,22.923,454.944,0,426.667,0z M443.733,426.667c0,9.426-7.641,17.067-17.067,17.067
			H51.2c-9.426,0-17.067-7.641-17.067-17.067v-10.001l68.267-68.267l56.201,56.201c6.664,6.663,17.468,6.663,24.132,0
			l141.534-141.534l119.467,119.467V426.667z M443.733,334.268l-107.401-107.4c-6.664-6.663-17.468-6.663-24.132,0L170.667,368.401
			l-56.201-56.201c-6.664-6.663-17.468-6.663-24.132,0l-56.201,56.201V170.667h409.6V334.268z M443.733,136.533h-409.6V102.4h409.6
			V136.533z M443.733,68.267h-409.6V51.2c0-9.426,7.641-17.067,17.067-17.067h375.467c9.426,0,17.067,7.641,17.067,17.067V68.267z"
			/>
	</g>
</g>
<g>
</g>
<g>
</g>
<g>
</g>
<g>
</g>
<g>
</g>
<g>
</g>
<g>
</g>
<g>
</g>
<g>
</g>
<g>
</g>
<g>
</g>
<g>
</g>
<g>
</g>
<g>
</g>
<g>
</g>
</svg>
